# xmcd
#
# Track frame offsets: 
#        183
#        17358
#        36653
#        50775
#        63428
#        79255
#        92378
#        103605
#        121888
#        134310
#
# Disc length: 2008 seconds
#
# Revision: 2
# Processed by: cddbd v1.5.2PL0 Copyright (c) Steve Scherf et al.
# Submitted via: ExactAudioCopy v0.99pb4
#
DISCID=8007d60a
DTITLE=Kenny Rogers - Love Lifted Me
DYEAR=1976
DGENRE=Country
TTITLE0=Love Lifted Me
TTITLE1=Abraham, Martin And John · Precious Memories
TTITLE2=I Would Like To See You Again
TTITLE3=Runaway Girl
TTITLE4=The World Needs A Melody
TTITLE5=You Gotta Be Tired
TTITLE6=Home-made Love
TTITLE7=While The Feeling's Good
TTITLE8=Heavenly Sunshine
TTITLE9=There's An Old Man In Our Town
EXTD=
EXTT0=
EXTT1=
EXTT2=
EXTT3=
EXTT4=
EXTT5=
EXTT6=
EXTT7=
EXTT8=
EXTT9=
PLAYORDER=
